# AST/ASF file generated using VICON BodyLanguage
# -----------------------------------------------
:version 1.10
:name VICON
:units
  mass 1.0
  length 0.45
  angle deg
:documentation
   .ast/.asf automatically generated from VICON data using
   VICON BodyBuilder and BodyLanguage model FoxedUp or BRILLIANT.MOD
:root
   order TX TY TZ RX RY RZ
   axis XYZ
   position 0 0 0  
   orientation 0 0 0 
:bonedata
  begin
     id 1 
     name lhipjoint
     direction 0.624716 -0.669793 0.401383 
     length 2.38238 
     axis 0 0 0  XYZ
  end
  begin
     id 2 
     name lfemur
     direction 0.34202 -0.939693 0  
     length 6.4574  
     axis 0 0 20  XYZ
    dof rx ry rz
    limits (-160.0 20.0)
           (-70.0 70.0)
           (-60.0 70.0)
  end
  begin
     id 3 
     name ltibia
     direction 0.34202 -0.939693 0   
     length 7.68739   
     axis 0 0 20   XYZ
    dof rx
    limits (-10.0 170.0)
  end
  begin
     id 4 
     name lfoot
     direction 0.0681309 -0.187188 0.979959   
     length 2.46615   
     axis -90 7.62852e-016 20   XYZ
    dof rx rz
    limits (-45.0 90.0)
           (-70.0 20.0)
  end
  begin
     id 5 
     name ltoes
     direction 1.53566e-011 -4.21819e-011 1   
     length 1.2376   
     axis -90 7.62852e-016 20   XYZ
    dof rx
    limits (-90.0 20.0)
  end
  begin
     id 6 
     name rhipjoint
     direction -0.644473 -0.655875 0.393043   
     length 2.43293  
     axis 0 0 0  XYZ 
  end
  begin
     id 7 
     name rfemur
     direction -0.34202 -0.939693 0   
     length 6.7025   
     axis 0 0 -20   XYZ
    dof rx ry rz
    limits (-160.0 20.0)
           (-70.0 70.0)
           (-70.0 60.0)
  end
  begin
     id 8 
     name rtibia
     direction -0.34202 -0.939693 0   
     length 7.80547   
     axis 0 0 -20   XYZ
    dof rx
    limits (-10.0 170.0)
 end
 begin
     id 9 
     name rfoot
     direction -0.0756734 -0.207911 0.975216   
     length 2.40315  
     axis -90 -7.62852e-016 -20   XYZ
    dof rx rz
    limits (-45.0 90.0)
           (-20.0 70.0)
  end
  begin
     id 10 
     name rtoes
     direction -1.5353e-011 -4.21879e-011 1   
     length 1.20477   
     axis -90 -7.62852e-016 -20   XYZ
    dof rx
    limits (-90.0 20.0)
  end
  begin
     id 11 
     name lowerback
     direction 0.0160353 0.987463 -0.157037   
     length 2.18572   
     axis 0 0 0   XYZ
    dof rx ry rz
    limits (-20.0 45.0)
           (-30.0 30.0)
           (-30.0 30.0)
  end
  begin
     id 12 
     name upperback
     direction -0.00499661 0.999756 0.0215076   
     length 2.18016   
     axis 0 0 0   XYZ
    dof rx ry rz
    limits (-20.0 45.0)
           (-30.0 30.0)
           (-30.0 30.0)
  end
  begin
     id 13 
     name thorax
     direction -0.00921346 0.995333 0.0960619   
     length 2.24923   
     axis 0 0 0   XYZ
    dof rx ry rz
    limits (-20.0 45.0)
           (-30.0 30.0)
           (-30.0 30.0)
  end
  begin
     id 14 
     name lowerneck
     direction 0.0274184 0.991181 0.12965   
     length 1.70911   
     axis 0 0 0   XYZ
    dof rx ry rz
    limits (-20.0 45.0)
           (-30.0 30.0)
           (-30.0 30.0)
  end
  begin
     id 15 
     name upperneck
     direction 0.0015627 0.999959 -0.00893559   
     length 1.69312   
     axis 0 0 0   XYZ
    dof rx ry rz
    limits (-20.0 45.0)
           (-30.0 30.0)
           (-30.0 30.0)
  end
  begin
     id 16
     name head
     direction -0.00230242 0.999856 -0.0168327  
     length 1.80241  
     axis 0 0 0   XYZ
    dof rx ry rz
    limits (-20.0 45.0)
           (-30.0 30.0)
           (-30.0 30.0)
  end
  begin
     id 17 
     name lclavicle
     direction 0.955523 0.290741 -0.0494489  
     length 3.84275  
     axis 0 0 0   XYZ
    dof ry rz
    limits (-20.0 10.0)
           (0.0 20.0)
  end
  begin
     id 18 
     name lhumerus
     direction 1 -4.48967e-011 -3.18382e-028   
     length 5.17714   
     axis 180 -30 -90   XYZ
    dof rx ry rz
    limits (-60.0 90.0)
           (-90.0 90.0)
           (-90.0 90.0)
  end
  begin
     id 19
     name lradius
     direction 1 -4.48968e-011 -2.22911e-027   
     length 3.43679   
     axis 180 -30 -90   XYZ
    dof rx
    limits (-10.0 170.0)
  end
  begin
     id 20
     name lwrist
     direction 1 -4.48951e-011 -6.32245e-027   
     length 1.7184   
     axis 3.57107e-015 90 90   XYZ
    dof ry
    limits (-180.0 0.0)
 end
  begin
     id 21 
     name lhand
     direction 1 -4.48924e-011 -1.26431e-026   
     length 0.573117   
     axis 8.06912e-015 90 90   XYZ
    dof rx rz
    limits (-90.0 90.0)
           (-45.0 45.0)
  end
  begin
     id 22 
     name lfingers
     direction 1 -4.49001e-011 -2.52965e-026   
     length 0.462062   
     axis 1.61381e-014 90 90   XYZ
    dof rx
    limits (0.0 90.0)
  end
  begin
     id 23
     name lthumb
     direction 0.707107 -6.35008e-011 0.707107   
     length 0.663431   
     axis -90 45 -1.62303e-014   XYZ
    dof rx rz
    limits (-45.0 45.0)
           (-45.0 45.0)
  end
  begin
     id 24 
     name rclavicle
     direction -0.963917 0.256881 -0.0698287   
     length 3.73057  
     axis 0 0 0   XYZ 
    dof ry rz
    limits (-10.0 20.0)
           (-20.0 0.0)
  end
  begin
     id 25 
     name rhumerus
     direction -1 -4.48962e-011 -2.73982e-027  
     length 5.23908   
     axis 180 30 90   XYZ
    dof rx ry rz
    limits (-90.0 60.0)
           (-90.0 90.0)
           (-90.0 90.0)
  end
  begin
     id 26 
     name rradius
     direction -1 -4.48968e-011 -4.33218e-027   
     length 3.46485   
     axis 180 30 90   XYZ
    dof rx
    limits (-10.0 170.0)
  end
  begin
     id 27 
     name rwrist
     direction -1 -4.48989e-011 -6.32372e-027   
     length 1.73243   
     axis 3.57107e-015 -90 -90   XYZ
    dof ry
    limits (-180.0 0.0)
  end
  begin
     id 28
     name rhand
     direction -1 -4.48948e-011 -1.26448e-026   
     length 0.608752   
     axis 8.06912e-015 -90 -90   XYZ
    dof rx rz
    limits (-90.0 90.0)
           (-45.0 45.0)
  end
  begin
     id 29
     name rfingers
     direction -1 -4.48962e-011 -2.52913e-026   
     length 0.490792   
     axis 1.61381e-014 -90 -90   XYZ
    dof rx
    limits (0.0 90.0)
  end
  begin
     id 30
     name rthumb
     direction -0.707107 -6.34878e-011 0.707107   
     length 0.704682   
     axis -90 -45 1.62303e-014   XYZ
    dof rx rz
    limits (-45.0 45.0)
           (-45.0 45.0)
  end
:hierarchy
  begin
    root lhipjoint rhipjoint lowerback
    lhipjoint lfemur
    lfemur ltibia
    ltibia lfoot
    lfoot ltoes
    rhipjoint rfemur
    rfemur rtibia
    rtibia rfoot
    rfoot rtoes
    lowerback upperback
    upperback thorax
    thorax lowerneck lclavicle rclavicle
    lowerneck upperneck
    upperneck head
    lclavicle lhumerus
    lhumerus lradius
    lradius lwrist
    lwrist lhand lthumb
    lhand lfingers
    rclavicle rhumerus
    rhumerus rradius
    rradius rwrist
    rwrist rhand rthumb
    rhand rfingers
  end

#!OML:ASF G:\JayActor3\Patient Classification 1\Patient 1\Session 6\male.ASF
:FULLY-SPECIFIED
:DEGREES
60
root 49.7881 15.9613 17.2323 185.83 -59.4259 -187.334
lowerback -1.24853 -1.28687 -4.75984
upperback 1.45005 -1.61544 -1.10747
thorax 2.29196 -0.887751 1.47266
lowerneck -1.53048 -3.42459 0.194911
upperneck -0.456241 -4.62202 4.15478
head 0.211536 -2.31852 1.20737
rclavicle 2.56836e-014 -1.18277e-014
rhumerus -34.2883 -6.42196 -84.8946
rradius 29.1988
rwrist -0.799846
rhand -20.7551 -6.23031
rfingers 7.12502
rthumb 5.61078 -36.136
lclavicle 2.56836e-014 -1.18277e-014
lhumerus -30.9716 6.69278 84.378
lradius 24.3874
lwrist 19.9839
lhand -18.4306 9.5848
lfingers 7.12502
lthumb 7.85479 39.4189
rfemur -15.1905 0.0299731 18.337
rtibia 41.1094
rfoot -27.0567 -13.3024
rtoes 2.92408
lfemur -2.36854 8.0225 -26.095
ltibia 20.1116
lfoot -16.6999 7.26733
ltoes -1.00969
61
root 49.789 15.9613 17.2305 185.82 -59.4304 -187.328
lowerback -1.2442 -1.29472 -4.77225
upperback 1.46058 -1.62568 -1.09865
thorax 2.30167 -0.893496 1.48819
lowerneck -1.52761 -3.42283 0.177545
upperneck -0.458137 -4.61905 4.15382
head 0.210821 -2.31699 1.21009
rclavicle 8.20608e-015 8.94531e-015
rhumerus -34.285 -6.38222 -84.8976
rradius 29.2182
rwrist -0.825215
rhand -20.7407 -6.23244
rfingers 7.12502
rthumb 5.62468 -36.1378
lclavicle 8.20608e-015 8.94531e-015
lhumerus -30.9583 6.71627 84.3885
lradius 24.4094
lwrist 19.9944
lhand -18.4387 9.64821
lfingers 7.12502
lthumb 7.84695 39.4826
rfemur -15.1794 0.0401148 18.35
rtibia 41.1042
rfoot -27.0658 -13.3019
rtoes 2.9574
lfemur -2.37103 8.02218 -26.083
ltibia 20.1271
lfoot -16.7039 7.26805
ltoes -1.03434
62
root 49.7898 15.9614 17.2287 185.812 -59.4341 -187.322
lowerback -1.24065 -1.30122 -4.78637
upperback 1.46895 -1.63411 -1.08963
thorax 2.30953 -0.898287 1.50498
lowerneck -1.52531 -3.42318 0.166544
upperneck -0.460571 -4.61895 4.14744
head 0.209793 -2.3169 1.21002
rclavicle 1.25172e-015 -2.78299e-015
rhumerus -34.2839 -6.34604 -84.8987
rradius 29.237
rwrist -0.85094
rhand -20.7337 -6.23012
rfingers 7.12502
rthumb 5.63145 -36.1353
lclavicle 1.25172e-015 -2.78299e-015
lhumerus -30.9427 6.73448 84.3997
lradius 24.427
lwrist 20.0115
lhand -18.436 9.718
lfingers 7.12502
lthumb 7.84949 39.5523
rfemur -15.1719 0.0505825 18.3629
rtibia 41.099
rfoot -27.0739 -13.3008
rtoes 2.98956
lfemur -2.37619 8.01969 -26.0715
ltibia 20.1422
lfoot -16.7073 7.2693
ltoes -1.04622
63
root 49.7903 15.9614 17.2268 185.807 -59.4376 -187.32
lowerback -1.23731 -1.31144 -4.80604
upperback 1.47599 -1.64739 -1.07677
thorax 2.31676 -0.90557 1.52862
lowerneck -1.51699 -3.42179 0.151998
upperneck -0.466624 -4.61606 4.13483
head 0.206521 -2.3155 1.20878
rclavicle 2.90381e-014 3.67752e-015
rhumerus -34.2827 -6.29511 -84.8977
rradius 29.2529
rwrist -0.877914
rhand -20.7318 -6.2278
rfingers 7.12502
rthumb 5.63333 -36.1329
lclavicle 2.90381e-014 3.67752e-015
lhumerus -30.9339 6.78615 84.4042
lradius 24.4473
lwrist 20.0165
lhand -18.415 9.77381
lfingers 7.12502
lthumb 7.86977 39.6073
rfemur -15.1633 0.0576794 18.3731
rtibia 41.0945
rfoot -27.08 -13.3002
rtoes 3.01146
lfemur -2.37998 8.01581 -26.0617
ltibia 20.1568
lfoot -16.7106 7.26878
ltoes -1.03533
64
root 49.7906 15.9614 17.2249 185.798 -59.4385 -187.313
lowerback -1.23856 -1.31785 -4.8215
upperback 1.48446 -1.65535 -1.06613
thorax 2.32752 -0.910214 1.54771
lowerneck -1.50775 -3.42605 0.152617
upperneck -0.473817 -4.62081 4.10992
head 0.202208 -2.31796 1.20111
rclavicle 7.01089e-014 -5.46658e-015
rhumerus -34.2798 -6.2605 -84.8942
rradius 29.2638
rwrist -0.898239
rhand -20.7355 -6.22243
rfingers 7.12502
rthumb 5.62976 -36.1276
lclavicle 7.01089e-014 -5.46658e-015
lhumerus -30.9217 6.84279 84.4035
lradius 24.4633
lwrist 20.0123
lhand -18.3867 9.81507
lfingers 7.12502
lthumb 7.8971 39.6476
rfemur -15.1554 0.0627028 18.3844
rtibia 41.0899
rfoot -27.0839 -13.2977
rtoes 3.02597
lfemur -2.38373 8.01162 -26.0508
ltibia 20.1722
lfoot -16.716 7.26974
ltoes -1.02114
65
root 49.7909 15.9613 17.2231 185.789 -59.4412 -187.304
lowerback -1.24044 -1.32102 -4.83348
upperback 1.49431 -1.659 -1.05896
thorax 2.33956 -0.912701 1.5614
lowerneck -1.49905 -3.43475 0.165079
upperneck -0.484848 -4.63163 4.08139
head 0.196547 -2.32357 1.1903
rclavicle -4.44128e-014 1.18277e-014
rhumerus -34.2744 -6.245 -84.8889
rradius 29.2707
rwrist -0.9107
rhand -20.7391 -6.21704
rfingers 7.12502
rthumb 5.62621 -36.1223
lclavicle -4.44128e-014 1.18277e-014
lhumerus -30.907 6.88739 84.4039
lradius 24.4782
lwrist 20.0292
lhand -18.3751 9.79996
lfingers 7.12502
lthumb 7.90827 39.632
rfemur -15.1483 0.0641527 18.3962
rtibia 41.0856
rfoot -27.0841 -13.2978
rtoes 3.02938
lfemur -2.38878 8.00698 -26.0391
ltibia 20.1889
lfoot -16.7213 7.27082
ltoes -1.01142
66
root 49.7911 15.9611 17.2213 185.773 -59.4426 -187.289
lowerback -1.24282 -1.32109 -4.83921
upperback 1.50423 -1.65859 -1.05345
thorax 2.35147 -0.913048 1.57003
lowerneck -1.49527 -3.43936 0.171449
upperneck -0.489951 -4.63739 4.06661
head 0.193924 -2.32653 1.1847
rclavicle -1.24563e-013 2.98177e-016
rhumerus -34.2723 -6.24273 -84.8802
rradius 29.2746
rwrist -0.913951
rhand -20.7444 -6.2033
rfingers 7.12502
rthumb 5.62111 -36.1087
lclavicle -1.24563e-013 2.98177e-016
lhumerus -30.8933 6.93247 84.4038
lradius 24.4904
lwrist 20.0536
lhand -18.3825 9.76115
lfingers 7.12502
lthumb 7.9012 39.5935
rfemur -15.1395 0.0636825 18.4102
rtibia 41.0805
rfoot -27.084 -13.2962
rtoes 3.03266
lfemur -2.39351 8.00275 -26.0249
ltibia 20.2091
lfoot -16.7309 7.27381
ltoes -1.01424
67
root 49.7911 15.9609 17.2197 185.753 -59.4421 -187.271
lowerback -1.24685 -1.31365 -4.83566
upperback 1.51602 -1.64821 -1.05518
thorax 2.36508 -0.908318 1.56635
lowerneck -1.49483 -3.44792 0.190195
upperneck -0.496784 -4.64889 4.0578
head 0.191296 -2.33246 1.17879
rclavicle -5.78339e-015 -1.67973e-014
rhumerus -34.2717 -6.26261 -84.8746
rradius 29.2791
rwrist -0.914633
rhand -20.7495 -6.19546
rfingers 7.12502
rthumb 5.61624 -36.101
lclavicle -5.78339e-015 -1.67973e-014
lhumerus -30.8737 6.94601 84.4068
lradius 24.5007
lwrist 20.1004
lhand -18.4141 9.71436
lfingers 7.12502
lthumb 7.87068 39.5478
rfemur -15.1305 0.0608657 18.4255
rtibia 41.0747
rfoot -27.0809 -13.2933
rtoes 3.02536
lfemur -2.39944 7.99801 -26.0098
ltibia 20.2325
lfoot -16.7437 7.28246
ltoes -1.03494
68
root 49.7911 15.9606 17.2181 185.727 -59.437 -187.245
lowerback -1.24933 -1.30593 -4.82978
upperback 1.52547 -1.63764 -1.05423
thorax 2.3754 -0.903339 1.56422
lowerneck -1.49561 -3.45008 0.197244
upperneck -0.494786 -4.65203 4.05771
head 0.191923 -2.33403 1.17751
rclavicle -1.11813e-013 1.6201e-014
rhumerus -34.2744 -6.28025 -84.8652
rradius 29.277
rwrist -0.908265
rhand -20.7557 -6.18079
rfingers 7.12502
rthumb 5.61023 -36.0865
lclavicle -1.11813e-013 1.6201e-014
lhumerus -30.8609 6.9576 84.4145
lradius 24.5128
lwrist 20.1594
lhand -18.4652 9.66799
lfingers 7.12502
lthumb 7.82133 39.5033
rfemur -15.121 0.0603114 18.444
rtibia 41.0679
rfoot -27.0766 -13.2903
rtoes 3.01594
lfemur -2.40577 7.99108 -25.9924
ltibia 20.2588
lfoot -16.761 7.29724
ltoes -1.05988
69
root 49.791 15.9604 17.2166 185.699 -59.4333 -187.217
lowerback -1.25148 -1.30057 -4.82349
upperback 1.53496 -1.63026 -1.05235
thorax 2.3858 -0.89994 1.56271
lowerneck -1.50431 -3.44657 0.197178
upperneck -0.480831 -4.64804 4.06327
head 0.197707 -2.33173 1.17898
rclavicle -5.94956e-014 1.60022e-014
rhumerus -34.2766 -6.28869 -84.8574
rradius 29.2707
rwrist -0.900356
rhand -20.7664 -6.13725
rfingers 7.12502
rthumb 5.59986 -36.0433
lclavicle -5.94956e-014 1.60022e-014
lhumerus -30.8512 6.97839 84.4198
lradius 24.5271
lwrist 20.2127
lhand -18.5166 9.62394
lfingers 7.12502
lthumb 7.77176 39.4611
rfemur -15.1103 0.0594972 18.4631
rtibia 41.0609
rfoot -27.0731 -13.2896
rtoes 3.00002
lfemur -2.41157 7.97954 -25.9751
ltibia 20.2855
lfoot -16.7797 7.3162
ltoes -1.09207
